<svg width="148" height="28" viewBox="0 0 148 28" fill="none" xmlns="http://www.w3.org/2000/svg">
<path fill-rule="evenodd" clip-rule="evenodd" d="M12.5243 0.518775C10.8164 0.685242 9.43645 1.02947 8.09226 1.62437C7.10359 2.06188 5.91875 2.74922 5.63794 3.04812C5.35856 3.34549 5.54213 3.83176 5.95821 3.89671C6.11687 3.92145 6.21406 3.87729 6.72043 3.55032C7.40043 3.11117 8.45527 2.58196 9.20028 2.30607C9.73255 2.10894 11.0449 1.75454 11.2425 1.75454C11.3473 1.75454 11.3475 1.75728 11.2527 1.89963C10.3981 3.18219 9.79787 4.76883 9.30919 7.03694L9.2226 7.43879L8.86956 7.5259C8.09754 7.71637 7.51245 8.26848 7.25539 9.04901C7.227 9.13527 7.05505 9.14134 4.63793 9.14134C3.21507 9.14134 2.05091 9.1262 2.05091 9.10762C2.05091 9.01323 2.66196 7.84068 2.92693 7.42655C3.30519 6.8355 3.33104 6.63035 3.05789 6.38633C2.90657 6.25109 2.84958 6.23157 2.67452 6.25505C2.40321 6.29146 2.36248 6.33082 2.0164 6.89026C-0.768105 11.3917 -0.660943 17.1322 2.28966 21.5305L2.51412 21.8651L2.35894 22.1659C2.14478 22.5811 2.06537 23.0778 2.14177 23.5238C2.39672 25.0121 3.9986 25.8238 5.32791 25.1382L5.62649 24.9842L6.09434 25.2874C8.23915 26.6774 10.4967 27.3912 13.0474 27.4861C17.7553 27.6612 22.1958 25.3487 24.8259 21.3522C26.3189 19.0836 27.0932 16.2903 26.991 13.5425C26.8962 10.9917 26.1823 8.73422 24.7923 6.58941L24.4891 6.12156L24.6431 5.82298C24.8562 5.40984 24.9354 4.91255 24.8591 4.46723C24.604 2.97768 23.0023 2.1673 21.6708 2.85401L21.37 3.00918L21.0354 2.78473C19.3563 1.6583 17.4693 0.933914 15.3999 0.621241C14.8744 0.541833 12.9802 0.474349 12.5243 0.518775ZM13.9623 1.67354C15.12 2.21252 16.2774 4.82956 16.8217 8.13885C16.8813 8.50159 16.9431 8.87578 16.959 8.97034L16.9878 9.14229L14.2627 9.12862L11.5376 9.11496L11.4412 8.86101C11.2617 8.38789 10.9285 8.03137 10.2873 7.62641C10.2562 7.60684 10.4224 6.84046 10.6339 6.02833C11.3295 3.35568 12.4874 1.54454 13.5005 1.54454C13.602 1.54454 13.8099 1.60258 13.9623 1.67354ZM16.5691 1.93261C16.9562 2.03054 17.5104 2.19859 17.8006 2.30607C19.004 2.7517 20.7245 3.71742 20.651 3.90599C20.5231 4.23407 20.4549 4.66219 20.4809 4.97312C20.6094 6.50905 22.1192 7.41837 23.5894 6.84526C23.6602 6.81761 23.7456 6.91095 23.9842 7.27659C24.2724 7.71817 24.95 8.9935 24.95 9.09438C24.95 9.12134 23.4813 9.14134 21.5042 9.14134H18.0583L17.914 8.25756C17.4938 5.68363 16.7967 3.53555 15.9577 2.2294C15.8365 2.04077 15.7194 1.85679 15.6975 1.82049C15.6347 1.71681 15.8003 1.73813 16.5691 1.93261ZM23.2152 3.80142C24.0757 4.25096 24.0255 5.46767 23.1297 5.87685C22.3619 6.22756 21.4504 5.56206 21.5322 4.71052C21.5878 4.1315 22.1071 3.654 22.6812 3.654C22.8543 3.654 23.0212 3.70006 23.2152 3.80142ZM3.86595 4.57207C3.66857 4.76946 3.63923 4.93951 3.76175 5.17647C3.94336 5.52761 4.48502 5.52761 4.66663 5.17647C4.80666 4.90564 4.72135 4.59766 4.47035 4.46787C4.2334 4.34535 4.06334 4.37469 3.86595 4.57207ZM9.89628 8.64183C10.4481 8.91683 10.6942 9.57621 10.447 10.1175C10.0358 11.0176 8.82287 11.0633 8.36695 10.1958C8.23884 9.95199 8.21815 9.85923 8.23578 9.60708C8.29461 8.76546 9.14836 8.26917 9.89628 8.64183ZM7.25539 10.2889C7.44618 10.8683 7.89044 11.3968 8.39275 11.6422L8.69323 11.789L8.66305 13.2484C8.63604 14.5536 8.67366 15.8002 8.78631 17.3328L8.82023 17.7945H5.22861H1.63699L1.58148 17.623C1.46609 17.2665 1.26168 16.3439 1.17188 15.7742C1.10218 15.3317 1.07907 14.877 1.08013 13.9691C1.08187 12.5275 1.18444 11.7756 1.55705 10.4736L1.6363 10.1966H4.43062C7.04518 10.1966 7.22695 10.2026 7.25539 10.2889ZM17.113 10.2626C17.2222 10.5993 17.3322 13.9934 17.2752 15.269L17.2359 16.1467L17.0617 16.175C16.7422 16.2269 16.303 16.4858 16.0053 16.798C15.7423 17.0736 15.4545 17.5587 15.4532 17.7285C15.4524 17.8251 9.91918 17.8251 9.88789 17.7285C9.77877 17.3922 9.66871 13.998 9.72564 12.7247L9.76474 11.8495L10.0223 11.7835C10.3475 11.7002 10.8433 11.3821 11.065 11.1145C11.2184 10.9295 11.4339 10.5335 11.5145 10.2889C11.543 10.2026 11.7237 10.1966 14.3183 10.1966C16.4904 10.1966 17.0963 10.2109 17.113 10.2626ZM25.4194 10.3681C25.5355 10.7267 25.7394 11.6483 25.8283 12.2168C25.9593 13.053 25.9596 14.9022 25.8291 15.7367C25.732 16.3575 25.5881 17.0247 25.445 17.5174L25.3646 17.7945H22.5573H19.75L19.5988 17.4476C19.4073 17.0078 19.03 16.5934 18.6241 16.3771L18.3075 16.2084L18.3378 14.7458C18.3649 13.4373 18.3274 12.1921 18.2146 10.6583L18.1807 10.1966H21.7723H25.3639L25.4194 10.3681ZM18.0942 17.3064C18.2817 17.4014 18.4351 17.5304 18.539 17.6803C18.6823 17.887 18.6976 17.9489 18.6976 18.3221C18.6976 18.6953 18.6823 18.7572 18.539 18.9639C18.3535 19.2314 17.9075 19.483 17.6197 19.4825C16.9527 19.4815 16.4345 18.9742 16.4345 18.3221C16.4345 17.4484 17.3135 16.9105 18.0942 17.3064ZM9.08689 19.7335C9.51544 22.3585 10.2154 24.4896 11.093 25.8408C11.2916 26.1465 11.3173 26.2128 11.2423 26.2253C11.0998 26.2492 9.78273 25.9007 9.20028 25.685C7.99687 25.2394 6.27643 24.2736 6.34993 24.0851C6.47782 23.757 6.54605 23.3289 6.52003 23.0179C6.3915 21.482 4.88169 20.5727 3.41156 21.1458C3.34075 21.1734 3.25533 21.0801 3.01668 20.7145C2.72849 20.2729 2.05091 18.9976 2.05091 18.8967C2.05091 18.8697 3.51957 18.8497 5.49675 18.8497H8.94259L9.08689 19.7335ZM15.4532 18.9157C15.4535 18.952 15.512 19.1068 15.5832 19.2598C15.7432 19.6034 16.1687 20.0614 16.483 20.2281C16.6128 20.2969 16.719 20.3805 16.719 20.4137C16.719 20.5354 16.3984 21.8816 16.2392 22.4285C15.6458 24.4663 14.7874 25.9333 13.9641 26.3167C13.6125 26.4803 13.3888 26.4805 13.0386 26.3175C11.8796 25.7779 10.7659 23.2611 10.1776 19.8522C10.0899 19.3444 10.0182 18.9111 10.0182 18.8893C10.0181 18.8675 11.2409 18.8497 12.7354 18.8497C14.8738 18.8497 15.4528 18.8637 15.4532 18.9157ZM24.95 18.8842C24.95 18.9547 24.3256 20.1578 24.1046 20.5129C23.1224 22.0916 21.5966 23.6175 20.0178 24.5997C19.4646 24.9439 18.5003 25.4155 17.851 25.6596C17.2754 25.8759 15.969 26.2365 15.7609 26.2365C15.6534 26.2365 15.6532 26.2341 15.7483 26.0914C16.5949 24.8207 17.2211 23.1665 17.6924 20.9552L17.7778 20.5544L18.1058 20.4633C18.8119 20.2669 19.3205 19.8354 19.5988 19.1966L19.75 18.8497H22.35C23.78 18.8497 24.95 18.8652 24.95 18.8842ZM4.85368 22.1629C5.73682 22.6243 5.64876 23.9043 4.70921 24.2631C3.95634 24.5506 3.11408 23.9219 3.17054 23.1144C3.21328 22.5032 3.72328 22.0155 4.31972 22.0155C4.49283 22.0155 4.65967 22.0615 4.85368 22.1629Z" fill="#8E2424"/>
<path d="M47.8097 14.4545C47.8097 15.8523 47.554 17.054 47.0426 18.0597C46.5313 19.0611 45.8303 19.8324 44.9396 20.3736C44.0533 20.9105 43.0455 21.179 41.9162 21.179C40.7827 21.179 39.7706 20.9105 38.88 20.3736C37.9936 19.8324 37.2947 19.0589 36.7834 18.0533C36.272 17.0476 36.0163 15.848 36.0163 14.4545C36.0163 13.0568 36.272 11.8572 36.7834 10.8558C37.2947 9.85014 37.9936 9.07883 38.88 8.5419C39.7706 8.00071 40.7827 7.73011 41.9162 7.73011C43.0455 7.73011 44.0533 8.00071 44.9396 8.5419C45.8303 9.07883 46.5313 9.85014 47.0426 10.8558C47.554 11.8572 47.8097 13.0568 47.8097 14.4545ZM45.8537 14.4545C45.8537 13.3892 45.6811 12.4922 45.3359 11.7635C44.995 11.0305 44.5263 10.4766 43.9297 10.1016C43.3374 9.7223 42.6662 9.53267 41.9162 9.53267C41.1619 9.53267 40.4886 9.7223 39.8963 10.1016C39.304 10.4766 38.8352 11.0305 38.4901 11.7635C38.1491 12.4922 37.9787 13.3892 37.9787 14.4545C37.9787 15.5199 38.1491 16.419 38.4901 17.152C38.8352 17.8807 39.304 18.4347 39.8963 18.8139C40.4886 19.1889 41.1619 19.3764 41.9162 19.3764C42.6662 19.3764 43.3374 19.1889 43.9297 18.8139C44.5263 18.4347 44.995 17.8807 45.3359 17.152C45.6811 16.419 45.8537 15.5199 45.8537 14.4545ZM50.1188 24.6818V11.1818H51.9853V12.7734H52.1451C52.2559 12.5689 52.4157 12.3324 52.6245 12.0639C52.8333 11.7955 53.123 11.5611 53.4938 11.3608C53.8645 11.1562 54.3546 11.054 54.964 11.054C55.7566 11.054 56.464 11.2543 57.0861 11.6548C57.7083 12.0554 58.1962 12.6328 58.5499 13.3871C58.9078 14.1413 59.0868 15.049 59.0868 16.1101C59.0868 17.1712 58.91 18.081 58.5563 18.8395C58.2026 19.5937 57.7168 20.1754 57.0989 20.5845C56.481 20.9893 55.7757 21.1918 54.9831 21.1918C54.3865 21.1918 53.8986 21.0916 53.5194 20.8913C53.1444 20.6911 52.8503 20.4567 52.6373 20.1882C52.4242 19.9197 52.2601 19.6811 52.1451 19.4723H52.03V24.6818H50.1188ZM51.9917 16.0909C51.9917 16.7812 52.0918 17.3864 52.2921 17.9062C52.4924 18.4261 52.7821 18.8331 53.1614 19.1271C53.5407 19.4169 54.0051 19.5618 54.5549 19.5618C55.1259 19.5618 55.6032 19.4105 55.9867 19.108C56.3702 18.8011 56.66 18.3857 56.856 17.8615C57.0563 17.3374 57.1564 16.7472 57.1564 16.0909C57.1564 15.4432 57.0584 14.8615 56.8624 14.3459C56.6706 13.8303 56.3809 13.4233 55.9931 13.125C55.6096 12.8267 55.1301 12.6776 54.5549 12.6776C54.0009 12.6776 53.5321 12.8203 53.1486 13.1058C52.7694 13.3913 52.4817 13.7898 52.2857 14.3011C52.0897 14.8125 51.9917 15.4091 51.9917 16.0909ZM65.5939 11.1818V12.4602H60.5059V11.1818H65.5939ZM61.9888 8.82955H63.4973V18.1875C63.4973 18.6136 63.5591 18.9332 63.6827 19.1463C63.8105 19.3551 63.9725 19.4957 64.1685 19.5682C64.3688 19.6364 64.5797 19.6705 64.8013 19.6705C64.9675 19.6705 65.1039 19.6619 65.2104 19.6449C65.3169 19.6236 65.4022 19.6065 65.4661 19.5938L65.7729 20.9489C65.6706 20.9872 65.5279 21.0256 65.3446 21.0639C65.1614 21.1065 64.9292 21.1278 64.6479 21.1278C64.2218 21.1278 63.8042 21.0362 63.3951 20.853C62.9902 20.6697 62.6536 20.3906 62.3851 20.0156C62.1209 19.6406 61.9888 19.1676 61.9888 18.5966V8.82955ZM67.8631 21V11.1818H69.3716V21H67.8631ZM68.6301 9.54545C68.3361 9.54545 68.0826 9.44531 67.8695 9.24503C67.6607 9.04474 67.5563 8.80398 67.5563 8.52273C67.5563 8.24148 67.6607 8.00071 67.8695 7.80043C68.0826 7.60014 68.3361 7.5 68.6301 7.5C68.9242 7.5 69.1756 7.60014 69.3844 7.80043C69.5975 8.00071 69.704 8.24148 69.704 8.52273C69.704 8.80398 69.5975 9.04474 69.3844 9.24503C69.1756 9.44531 68.9242 9.54545 68.6301 9.54545ZM72.1346 21V11.1818H73.592V12.7159H73.7198C73.9244 12.1918 74.2546 11.7848 74.7106 11.495C75.1665 11.201 75.7141 11.054 76.3533 11.054C77.0011 11.054 77.5401 11.201 77.9705 11.495C78.4052 11.7848 78.744 12.1918 78.9869 12.7159H79.0891C79.3406 12.2088 79.7177 11.8061 80.2205 11.5078C80.7234 11.2053 81.3264 11.054 82.0295 11.054C82.9073 11.054 83.6254 11.3288 84.1836 11.8786C84.7418 12.424 85.021 13.2741 85.021 14.429V21H83.5124V14.429C83.5124 13.7045 83.3143 13.1868 82.918 12.8757C82.5217 12.5646 82.055 12.4091 81.5181 12.4091C80.8278 12.4091 80.293 12.6179 79.9137 13.0355C79.5344 13.4489 79.3448 13.973 79.3448 14.608V21H77.8107V14.2756C77.8107 13.7173 77.6296 13.2678 77.2674 12.9268C76.9052 12.5817 76.4386 12.4091 75.8675 12.4091C75.4755 12.4091 75.109 12.5135 74.7681 12.7223C74.4315 12.9311 74.1587 13.2209 73.9499 13.5916C73.7454 13.9581 73.6431 14.3821 73.6431 14.8636V21H72.1346ZM93.9666 16.9858V11.1818H95.4751V21H93.9666V19.3381H93.8643C93.6342 19.8366 93.2763 20.2607 92.7905 20.6101C92.3047 20.9553 91.6911 21.1278 90.9496 21.1278C90.3359 21.1278 89.7905 20.9936 89.3132 20.7251C88.8359 20.4524 88.4609 20.0433 88.1882 19.4979C87.9155 18.9482 87.7791 18.2557 87.7791 17.4205V11.1818H89.2876V17.3182C89.2876 18.0341 89.4879 18.6051 89.8885 19.0312C90.2933 19.4574 90.8089 19.6705 91.4354 19.6705C91.8104 19.6705 92.1918 19.5746 92.5795 19.3828C92.9716 19.1911 93.2997 18.897 93.5639 18.5007C93.8324 18.1044 93.9666 17.5994 93.9666 16.9858ZM105.499 13.5788L103.767 13.8857C103.695 13.6641 103.58 13.4531 103.422 13.2528C103.269 13.0526 103.06 12.8885 102.796 12.7607C102.531 12.6328 102.201 12.5689 101.805 12.5689C101.264 12.5689 100.812 12.6903 100.45 12.9332C100.088 13.1719 99.9064 13.4808 99.9064 13.8601C99.9064 14.1882 100.028 14.4524 100.271 14.6527C100.514 14.853 100.906 15.017 101.447 15.1449L103.007 15.5028C103.91 15.7116 104.583 16.0334 105.026 16.468C105.47 16.9027 105.691 17.4673 105.691 18.1619C105.691 18.75 105.521 19.2741 105.18 19.7344C104.843 20.1903 104.372 20.5483 103.767 20.8082C103.166 21.0682 102.47 21.1982 101.677 21.1982C100.578 21.1982 99.6806 20.9638 98.986 20.495C98.2914 20.022 97.8652 19.3509 97.7076 18.4815L99.5549 18.2003C99.6699 18.6818 99.9064 19.0462 100.264 19.2933C100.622 19.5362 101.089 19.6577 101.664 19.6577C102.291 19.6577 102.791 19.5277 103.166 19.2678C103.541 19.0036 103.729 18.6818 103.729 18.3026C103.729 17.9957 103.614 17.7379 103.384 17.5291C103.158 17.3203 102.811 17.1626 102.342 17.0561L100.68 16.6918C99.7637 16.483 99.0861 16.1506 98.6472 15.6946C98.2125 15.2386 97.9952 14.6612 97.9952 13.9624C97.9952 13.3828 98.1571 12.8757 98.481 12.4411C98.8049 12.0064 99.2523 11.6676 99.8233 11.4247C100.394 11.1776 101.048 11.054 101.786 11.054C102.847 11.054 103.682 11.2841 104.291 11.7443C104.901 12.2003 105.303 12.8118 105.499 13.5788ZM105.964 9.60938V7.90909H116.096V9.60938H112.011V21H110.043V9.60938H105.964ZM120.989 21.1982C120.022 21.1982 119.189 20.9915 118.49 20.5781C117.795 20.1605 117.258 19.5746 116.879 18.8203C116.504 18.0618 116.316 17.1733 116.316 16.1548C116.316 15.1491 116.504 14.2628 116.879 13.4957C117.258 12.7287 117.787 12.13 118.464 11.6996C119.146 11.2692 119.943 11.054 120.855 11.054C121.409 11.054 121.946 11.1456 122.466 11.3288C122.985 11.5121 123.452 11.7997 123.865 12.1918C124.279 12.5838 124.605 13.093 124.843 13.7195C125.082 14.3416 125.201 15.098 125.201 15.9886V16.6662H117.397V15.2344H123.328C123.328 14.7315 123.226 14.2862 123.022 13.8984C122.817 13.5064 122.529 13.1974 122.159 12.9716C121.792 12.7457 121.362 12.6328 120.868 12.6328C120.331 12.6328 119.862 12.7649 119.461 13.0291C119.065 13.2891 118.758 13.63 118.541 14.0518C118.328 14.4695 118.221 14.9233 118.221 15.4134V16.532C118.221 17.1882 118.336 17.7464 118.566 18.2067C118.801 18.6669 119.127 19.0185 119.544 19.2614C119.962 19.5 120.45 19.6193 121.008 19.6193C121.37 19.6193 121.701 19.5682 121.999 19.4659C122.297 19.3594 122.555 19.2017 122.772 18.9929C122.99 18.7841 123.156 18.5263 123.271 18.2195L125.08 18.5455C124.935 19.0781 124.675 19.5447 124.3 19.9453C123.929 20.3416 123.463 20.6506 122.9 20.8722C122.342 21.0895 121.705 21.1982 120.989 21.1982ZM131.458 21.1982C130.507 21.1982 129.689 20.983 129.003 20.5526C128.321 20.1179 127.797 19.5192 127.431 18.7564C127.064 17.9936 126.881 17.12 126.881 16.1357C126.881 15.1385 127.068 14.2585 127.443 13.4957C127.818 12.7287 128.347 12.13 129.029 11.6996C129.71 11.2692 130.514 11.054 131.438 11.054C132.184 11.054 132.849 11.1925 133.433 11.4695C134.017 11.7422 134.487 12.1257 134.845 12.62C135.208 13.1143 135.423 13.6918 135.491 14.3523H133.631C133.529 13.892 133.294 13.4957 132.928 13.1634C132.566 12.831 132.08 12.6648 131.47 12.6648C130.938 12.6648 130.471 12.8054 130.07 13.0866C129.674 13.3636 129.365 13.7599 129.144 14.2756C128.922 14.7869 128.811 15.392 128.811 16.0909C128.811 16.8068 128.92 17.4247 129.137 17.9446C129.355 18.4645 129.661 18.8672 130.058 19.1527C130.458 19.4382 130.929 19.581 131.47 19.581C131.833 19.581 132.161 19.5149 132.455 19.3828C132.753 19.2464 133.002 19.0526 133.203 18.8011C133.407 18.5497 133.55 18.2472 133.631 17.8935H135.491C135.423 18.5284 135.216 19.0952 134.871 19.5938C134.526 20.0923 134.063 20.4844 133.484 20.7699C132.909 21.0554 132.233 21.1982 131.458 21.1982ZM139.446 15.1705V21H137.535V7.90909H139.42V12.7798H139.542C139.772 12.2514 140.124 11.8317 140.597 11.5206C141.07 11.2095 141.688 11.054 142.45 11.054C143.124 11.054 143.712 11.1925 144.214 11.4695C144.722 11.7464 145.114 12.1598 145.391 12.7095C145.672 13.255 145.812 13.9368 145.812 14.755V21H143.901V14.9851C143.901 14.2649 143.716 13.7067 143.345 13.3104C142.974 12.9098 142.459 12.7095 141.798 12.7095C141.347 12.7095 140.942 12.8054 140.584 12.9972C140.23 13.1889 139.951 13.4702 139.746 13.8409C139.546 14.2074 139.446 14.6506 139.446 15.1705Z" fill="#3A404E"/>
</svg>
